<svg xmlns="http://www.w3.org/2000/svg" width="48" height="48"
     viewBox="0 0 24 24" role="img">
  <title>Sticky Note Icon - Accent</title>
  <desc>黄色い付箋と濃い折り返し。下部に微妙な影。</desc>
  <!-- 背景本体 -->
  <path fill="#FFD84D" d="M6 2h8.4a1.6 1.6 0 0 1 1.13.47l5 5A1.6 1.6 0 0 1 21 8.6V18a4 4 0 0 1-4 4H6a4 4 0 0 1-4-4V6a4 4 0 0 1 4-4Z"/>
  <!-- 折り返し -->
  <path fill="#FFC433" d="M14 2v4.2c0 .99.81 1.8 1.8 1.8H20L14 2Z"/>
  <!-- 下端影 -->
  <path fill="rgba(0,0,0,0.12)" d="M4 18.5c0 1.38 1.12 2.5 2.5 2.5h10.9A2.6 2.6 0 0 0 20 18.7v-.2H4v0Z"/>
  <!-- 罫線 -->
  <path stroke="#7A5A00" stroke-width="1.5" stroke-linecap="round" d="M8 11.8h7M8 15.5h5"/>
</svg>
